<svg width="111" height="130" viewBox="0 0 111 130" fill="none" xmlns="http://www.w3.org/2000/svg">
<g style="mix-blend-mode:overlay" opacity="0.5">
<path d="M14.8644 38.9261H29.2897C30.2854 38.9261 31.0928 38.0242 31.0928 36.9118V30.8688H27.4865V34.8975H16.6675V22.8114H22.077V18.7827H14.8644C13.8686 18.7827 13.0612 19.6847 13.0612 20.7971V36.9118C13.0612 38.0242 13.8686 38.9261 14.8644 38.9261Z" fill="#6D74FF"/>
<path d="M22.077 28.0204L19.7456 25.4159L17.1958 28.2643L20.8021 32.293C21.1543 32.6864 21.6157 32.8831 22.077 32.8831C22.5384 32.8831 22.9997 32.6864 23.3519 32.293L34.1709 20.2069L31.6211 17.3585L22.077 28.0204Z" fill="#6D74FF"/>
<path d="M27.4865 61.0839H16.6675V48.9978H22.077V44.9692H14.8644C13.8686 44.9692 13.0612 45.8711 13.0612 46.9835V63.0982C13.0612 64.2107 13.8686 65.1126 14.8644 65.1126H29.2897C30.2854 65.1126 31.0928 64.2107 31.0928 63.0982V57.0552H27.4865V61.0839Z" fill="#6D74FF"/>
<path d="M22.077 54.2068L19.7456 51.6023L17.1958 54.4507L20.8021 58.4794C21.1543 58.8728 21.6157 59.0696 22.077 59.0696C22.5384 59.0696 22.9997 58.8728 23.3519 58.4794L34.1709 46.3934L31.6211 43.545L22.077 54.2068Z" fill="#6D74FF"/>
<path d="M29.2897 71.1556H14.8644C13.8686 71.1556 13.0612 72.0575 13.0612 73.1699V89.2847C13.0612 90.3971 13.8686 91.299 14.8644 91.299H29.2897C30.2854 91.299 31.0928 90.3971 31.0928 89.2847V73.1699C31.0928 72.0575 30.2854 71.1556 29.2897 71.1556ZM27.4865 87.2703H16.6675V75.1843H27.4865V87.2703Z" fill="#6D74FF"/>
<path d="M29.2897 97.342H14.8644C13.8686 97.342 13.0612 98.244 13.0612 99.3564V115.471C13.0612 116.584 13.8686 117.485 14.8644 117.485H29.2897C30.2854 117.485 31.0928 116.584 31.0928 115.471V99.3564C31.0928 98.244 30.2854 97.342 29.2897 97.342ZM27.4865 113.457H16.6675V101.371H27.4865V113.457Z" fill="#6D74FF"/>
<path d="M104.494 11.3155C103.79 10.5287 102.649 10.5287 101.944 11.3155L90.5971 23.9917L73.8404 5.27248C73.5023 4.89479 73.0436 4.68234 72.5655 4.68234H5.84857C4.85278 4.68234 4.04541 5.58426 4.04541 6.69668V123.528C4.04541 124.641 4.85278 125.543 5.84857 125.543H90.5971C91.5929 125.543 92.4003 124.641 92.4003 123.528V43.7889L111.707 22.2213C112.411 21.4344 112.411 20.1597 111.707 19.3729L104.494 11.3155ZM88.7939 121.514H7.65173V8.71102H71.8189L86.2442 24.8258H74.3687V14.754H70.7623V26.8401C70.7623 27.9525 71.5697 28.8544 72.5655 28.8544H86.2442L44.2432 75.7744C44.0451 75.9957 43.8963 76.2652 43.8074 76.5613L40.2011 88.6473C39.9854 89.3712 40.1535 90.1699 40.6369 90.7089C40.9803 91.0935 41.4416 91.299 41.9118 91.299C42.1028 91.299 42.2948 91.2656 42.4823 91.1957L53.3013 87.1671C53.5663 87.0677 53.8075 86.9015 54.0056 86.6802L88.7939 47.8176V121.514ZM46.3061 80.9273L49.3929 84.3757L44.7627 86.0999L46.3061 80.9273ZM52.7307 82.4076L48.0679 77.1986L103.219 15.5881L107.882 20.7971L52.7307 82.4076Z" fill="#6D74FF"/>
<path d="M81.5813 113.457H85.1876V117.485H81.5813V113.457Z" fill="#6D74FF"/>
<path d="M74.3687 113.457H77.975V117.485H74.3687V113.457Z" fill="#6D74FF"/>
<path d="M67.156 113.457H70.7623V117.485H67.156V113.457Z" fill="#6D74FF"/>
</g>
</svg>
