<svg width="29" height="29" viewBox="0 0 29 29" fill="none" xmlns="http://www.w3.org/2000/svg">
<path d="M14.5 20.5416H22.9583M7.25 20.5416H9.65466H7.25Z" stroke="white" stroke-width="1.5" stroke-linecap="round" stroke-linejoin="round"/>
<path d="M20.5652 14.5H22.9583M7.25 14.5H15.5154H7.25Z" stroke="white" stroke-width="1.5" stroke-linecap="round" stroke-linejoin="round"/>
<path d="M14.4953 8.45825H22.9583M7.25 8.45825H9.6543H7.25Z" stroke="white" stroke-width="1.5" stroke-linecap="round" stroke-linejoin="round"/>
<path d="M12.0834 10.875C13.4181 10.875 14.5001 9.79298 14.5001 8.45829C14.5001 7.1236 13.4181 6.04163 12.0834 6.04163C10.7487 6.04163 9.66675 7.1236 9.66675 8.45829C9.66675 9.79298 10.7487 10.875 12.0834 10.875Z" stroke="white" stroke-width="1.5"/>
<path d="M18.1249 16.9166C19.4596 16.9166 20.5416 15.8346 20.5416 14.4999C20.5416 13.1652 19.4596 12.0833 18.1249 12.0833C16.7902 12.0833 15.7083 13.1652 15.7083 14.4999C15.7083 15.8346 16.7902 16.9166 18.1249 16.9166Z" stroke="white" stroke-width="1.5"/>
<path d="M12.0834 22.9583C13.4181 22.9583 14.5001 21.8764 14.5001 20.5417C14.5001 19.207 13.4181 18.125 12.0834 18.125C10.7487 18.125 9.66675 19.207 9.66675 20.5417C9.66675 21.8764 10.7487 22.9583 12.0834 22.9583Z" stroke="white" stroke-width="1.5"/>
</svg>
